<svg viewBox="0 0 30 30" fillColor="current" xmlns="http://www.w3.org/2000/svg">
<mask id="mask0_441_556" style="mask-type:alpha" maskUnits="userSpaceOnUse" x="2" y="2" width="26" height="26">
<path fill-rule="evenodd" clip-rule="evenodd" d="M16.25 2.5V5.08625C18.4498 5.36669 20.4942 6.36967 22.0623 7.93775C23.6303 9.50582 24.6333 11.5502 24.9137 13.75H27.5V16.25H24.9137C24.6335 18.4499 23.6306 20.4944 22.0625 22.0625C20.4944 23.6306 18.4499 24.6335 16.25 24.9137V27.5H13.75V24.9137C11.5502 24.6333 9.50582 23.6303 7.93775 22.0623C6.36967 20.4942 5.36669 18.4498 5.08625 16.25H2.5V13.75H5.08625C5.3671 11.5504 6.37021 9.50621 7.93821 7.93821C9.50621 6.37021 11.5504 5.3671 13.75 5.08625V2.5H16.25ZM7.5 15C7.5 19.1362 10.8638 22.5 15 22.5C19.1362 22.5 22.5 19.1362 22.5 15C22.5 10.8638 19.1362 7.5 15 7.5C10.8638 7.5 7.5 10.8638 7.5 15ZM20 15C20 17.7614 17.7614 20 15 20C12.2386 20 10 17.7614 10 15C10 12.2386 12.2386 10 15 10C17.7614 10 20 12.2386 20 15Z" fill="#D9D9D9"/>
</mask>
<g mask="url(#mask0_441_556)">
<rect x="2" y="2" width="26" height="26" fill="url(#paint0_linear_441_556)"/>
</g>
<defs>
<linearGradient id="paint0_linear_441_556" x1="2" y1="14.9999" x2="28" y2="14.9999" gradientUnits="userSpaceOnUse">
<stop stop-color="#FEAC5E"/>
<stop offset="0.255208" stop-color="#C779D0"/>
<stop offset="1" stop-color="#4BC0C8"/>
</linearGradient>
</defs>
</svg>
