<svg viewBox="0 0 24 24"  fill='currentColor' xmlns="http://www.w3.org/2000/svg">
<path d="M4.00001 21C4.07972 21.0097 4.1603 21.0097 4.24001 21L8.24001 20C8.41746 19.9578 8.57999 19.8679 8.71001 19.74L21 7.41003C21.3725 7.0353 21.5816 6.5284 21.5816 6.00003C21.5816 5.47165 21.3725 4.96475 21 4.59003L19.42 3.00003C19.2343 2.81407 19.0137 2.66655 18.7709 2.56591C18.5281 2.46526 18.2678 2.41345 18.005 2.41345C17.7422 2.41345 17.4819 2.46526 17.2391 2.56591C16.9963 2.66655 16.7758 2.81407 16.59 3.00003L4.30001 15.29C4.1708 15.4206 4.07776 15.5826 4.03001 15.76L3.03001 19.76C2.99407 19.8894 2.98456 20.0247 3.00204 20.1579C3.01953 20.291 3.06365 20.4193 3.13177 20.535C3.1999 20.6507 3.29064 20.7515 3.39858 20.8314C3.50651 20.9113 3.62944 20.9687 3.76001 21C3.83972 21.0097 3.9203 21.0097 4.00001 21ZM18 4.41003L19.59 6.00003L18 7.59003L16.42 6.00003L18 4.41003ZM5.91001 16.51L15 7.41003L16.59 9.00003L7.49001 18.1L5.38001 18.62L5.91001 16.51Z" fill="current"/>
</svg>
