<svg viewBox="0 0 30 30" fill="none" xmlns="http://www.w3.org/2000/svg">
<path d="M9.46455 22.9094C9.60475 22.9767 9.76216 23.0075 9.91989 22.9985C10.0776 22.9894 10.2297 22.9409 10.3598 22.8582L21.6269 15.6578C21.742 15.5842 21.8361 15.4859 21.9011 15.3713C21.9661 15.2568 22 15.1294 22 15.0002C22 14.8709 21.9661 14.7435 21.9011 14.629C21.8361 14.5144 21.742 14.4161 21.6269 14.3425L10.3598 7.14214C10.2298 7.05909 10.0777 7.01045 9.91984 7.00151C9.76201 6.99256 9.60455 7.02363 9.46449 7.09137C9.32443 7.1591 9.20711 7.26091 9.12523 7.38578C9.04336 7.51065 9.00005 7.65381 9 7.79977V22.2005C8.99997 22.3466 9.04325 22.4898 9.12514 22.6148C9.20703 22.7397 9.32441 22.8416 9.46455 22.9094Z" fill="#F1F1F1"/>
</svg>
