<svg viewBox="0 0 24 24" fillColor="current" xmlns="http://www.w3.org/2000/svg">
<path d="M7.35734 18.9207C7.46519 18.9796 7.58628 19.0065 7.70761 18.9987C7.82894 18.9908 7.94594 18.9483 8.04603 18.8759L16.713 12.5756C16.8015 12.5111 16.8739 12.4251 16.9239 12.3249C16.9739 12.2247 17 12.1133 17 12.0001C17 11.887 16.9739 11.7756 16.9239 11.6753C16.8739 11.5751 16.8015 11.4891 16.713 11.4247L8.04603 5.12437C7.94601 5.0517 7.82897 5.00915 7.70757 5.00132C7.58616 4.99349 7.46504 5.02068 7.3573 5.07995C7.24956 5.13921 7.15931 5.2283 7.09633 5.33756C7.03335 5.44682 7.00004 5.57209 7 5.6998V18.3005C6.99998 18.4282 7.03327 18.5536 7.09626 18.6629C7.15925 18.7723 7.24954 18.8614 7.35734 18.9207Z" fill="current"/>
</svg>
