<svg viewBox="0 0 44 44" fill="none" xmlns="http://www.w3.org/2000/svg">
    <g filter="url(#filter0_d_1163_1156)">
        <path fill-rule="evenodd" clip-rule="evenodd" d="M22 40C31.9411 40 40 31.9411 40 22C40 12.0589 31.9411 4 22 4C12.0589 4 4 12.0589 4 22C4 31.9411 12.0589 40 22 40ZM19.046 29.498C18.9095 29.5065 18.7733 29.4776 18.652 29.4145C18.5307 29.351 18.4292 29.2555 18.3583 29.1383C18.2874 29.0212 18.25 28.8869 18.25 28.75V15.25C18.25 15.1132 18.2875 14.979 18.3584 14.8619C18.4292 14.7448 18.5307 14.6494 18.6519 14.5859C18.7731 14.5224 18.9094 14.4933 19.046 14.5017C19.1826 14.5101 19.3142 14.5556 19.4268 14.6335L29.1768 21.3835C29.2764 21.4525 29.3578 21.5447 29.414 21.652C29.4703 21.7594 29.4996 21.8788 29.4996 22C29.4996 22.1212 29.4703 22.2406 29.414 22.348C29.3578 22.4553 29.2764 22.5475 29.1768 22.6165L19.4268 29.3665C19.3141 29.4441 19.1825 29.4896 19.046 29.498Z" fill="#F1F1F1"/>
    </g>
    <defs>
        <filter id="filter0_d_1163_1156" x="0" y="0" width="44" height="44" filterUnits="userSpaceOnUse" color-interpolation-filters="sRGB">
            <feFlood flood-opacity="0" result="BackgroundImageFix"/>
                <feColorMatrix in="SourceAlpha" type="matrix" values="0 0 0 0 0 0 0 0 0 0 0 0 0 0 0 0 0 0 127 0" result="hardAlpha"/>
            <feOffset/>
            <feGaussianBlur stdDeviation="2"/>
            <feComposite in2="hardAlpha" operator="out"/>
            <feColorMatrix type="matrix" values="0 0 0 0 0.133333 0 0 0 0 0.133333 0 0 0 0 0.133333 0 0 0 0.1 0"/>
            <feBlend mode="normal" in2="BackgroundImageFix" result="effect1_dropShadow_1163_1156"/>
            <feBlend mode="normal" in="SourceGraphic" in2="effect1_dropShadow_1163_1156" result="shape"/>
        </filter>
    </defs>
</svg>
