<svg xmlns='http://www.w3.org/2000/svg'  viewBox='0 0 24 24' width='24' height='24'>
     <defs>
        <linearGradient id="myGradient" x1="0%" y1="0%" x2="100%" y2="0%">
            <stop offset="0%" style="stop-color:#FEAC5E" />
            <stop offset="25.52%" style="stop-color:#C779D0" />
            <stop offset="100%" style="stop-color:#4BC0C8" />
        </linearGradient>
    </defs>
    <path d="M10 18a7.952 7.952 0 0 0 4.897-1.688l4.396 4.396 1.414-1.414-4.396-4.396A7.952 7.952 0 0 0 18 10c0-4.411-3.589-8-8-8s-8 3.589-8 8 3.589 8 8 8zm0-14c3.309 0 6 2.691 6 6s-2.691 6-6 6-6-2.691-6-6 2.691-6 6-6z" fill="url(#myGradient)" />
</svg>