<svg  viewBox="0 0 24 24" fill="none" xmlns="http://www.w3.org/2000/svg">
<path d="M18.816 0H24V4.64931H18.816V0ZM18.816 6.45023H24V11.0995H18.816V6.45023ZM18.816 12.9005H24V17.5498H18.816V12.9005ZM0 19.3507H5.184V24H0V19.3507ZM6.264 19.3507H11.448V24H6.264V19.3507ZM12.54 19.3507H17.724V24H12.54V19.3507ZM18.816 19.3507H24V24H18.816V19.3507ZM12.54 12.9005H17.724V17.5498H12.54V12.9005ZM6.264 12.9005H11.448V17.5498H6.264V12.9005ZM6.264 6.45023H11.448V11.0995H6.264V6.45023Z" fill="url(#paint0_linear_480_1113)"/>
<defs>
<linearGradient id="paint0_linear_480_1113" x1="1.78814e-07" y1="11.9999" x2="24" y2="11.9999" gradientUnits="userSpaceOnUse">
<stop stop-color="#FEAC5E"/>
<stop offset="0.255208" stop-color="#C779D0"/>
<stop offset="1" stop-color="#4BC0C8"/>
</linearGradient>
</defs>
</svg>
