<svg xmlns='http://www.w3.org/2000/svg' viewBox='0 0 24 24' width='24' height='24'>
    <defs>
        <linearGradient id="myGradient" x1="0%" y1="0%" x2="100%" y2="0%">
            <stop offset="0%" style="stop-color:#FEAC5E" />
            <stop offset="25.52%" style="stop-color:#C779D0" />
            <stop offset="100%" style="stop-color:#4BC0C8" />
        </linearGradient>
    </defs>
    <path d="M12.71 2.29a1 1 0 0 0-1.42 0l-9 9a1 1 0 0 0 0 1.42A1 1 0 0 0 3 13h1v7a2 2 0 0 0 2 2h12a2 2 0 0 0 2-2v-7h1a1 1 0 0 0 1-1 1 1 0 0 0-.29-.71zM6 20v-9.59l6-6 6 6V20z" fill="url(#myGradient)"/>
</svg>