<svg xmlns='http://www.w3.org/2000/svg'  viewBox='0 0 24 24' width='24' height='24'>
 <defs>
        <linearGradient id="myGradient" x1="0%" y1="0%" x2="100%" y2="0%">
            <stop offset="0%" style="stop-color:#FEAC5E" />
            <stop offset="25.52%" style="stop-color:#C779D0" />
            <stop offset="100%" style="stop-color:#4BC0C8" />
        </linearGradient>
    </defs>
    <circle cx="12" cy="12" r="4"></circle><path d="M13 4.069V2h-2v2.069A8.01 8.01 0 0 0 4.069 11H2v2h2.069A8.008 8.008 0 0 0 11 19.931V22h2v-2.069A8.007 8.007 0 0 0 19.931 13H22v-2h-2.069A8.008 8.008 0 0 0 13 4.069zM12 18c-3.309 0-6-2.691-6-6s2.691-6 6-6 6 2.691 6 6-2.691 6-6 6z" fill="url(#myGradient)" />
</svg>